<svg xmlns="http://www.w3.org/2000/svg" viewBox="0 0 575.8 298.34"><defs><style>.cls-1{fill:#2d2d2d;}.cls-2{fill:#2c2c2c;}.cls-3{fill:#2e2e2e;}.cls-4{fill:#303030;}</style></defs><g id="Layer_2" data-name="Layer 2"><g id="Layer_1-2" data-name="Layer 1"><path class="cls-1" d="M106.61,150.08C98.74,147,95.84,142.36,97.05,135s6-11.41,14.5-11.49c13-.14,26,0,38.84,0,1.36-1.89.92-3.64.4-6h-69v96.82c-3.91.82-7.46.54-11.49.22V187.42c-13.2,10.67-27,12-40.89,4.15C14.23,183,6.75,169.39,6.81,152c.05-12.64,3-24.41,13.19-34.34H7V106.12H519.64v11.12h-98v21H575.16c1.11,3.72.41,7.2.59,11.2H421.45v65.08H410.94V149.83H385.67V298.34H374.44V220.12c-7.88,5.48-15.72,7.83-24.48,6.67a30.09,30.09,0,0,1-20.83-12.39c-8.48-11.37-7.85-27.35,1.22-38.41,10.26-12.49,24.12-14.12,43.71-5.06v-21.1H305.92v92.71H295.24V149.81H270.05v92.67H258.84V176.65H240.62c3.58,6,6.19,12,6.18,18.88,0,17.31-13,31-30.08,31.52a30.85,30.85,0,0,1-32.16-29.9c-.54-17.48,12.31-31.75,29.76-32.3,14-.44,28-.09,42-.1.64,0,1.28-.1,2.18-.18V149.78H184.92V138.57H410.53V117.79H163v16.54c-18.37,1.09-36.44-1-54.27,1.28-.38,4.91,2,5.34,4.69,5.07,6.27-.65,12.5-1.7,18.78-2.2,15.45-1.23,30,7.76,36.4,22.45-4.11,1.08-8.2.19-12.07.53-12.79-12.35-24.06-14.76-35.68-7.73a26.13,26.13,0,0,0,14.38,48.37c13.29-.47,21.67-8.88,25.81-26.09h10.19c1.95,12.46-7.68,27.58-21.51,34-14.65,6.8-33.06,2.74-43.62-9.63Q87.54,178.63,106.61,150.08ZM36.7,117.54a57.46,57.46,0,0,0-10.58,10C13.19,143.59,14.81,175.2,41,183.24a22.68,22.68,0,0,0,29.25-21.47c.06-13.3,0-26.6,0-39.9,0-1.41.55-3-.8-4.33Zm317.45,59a19.46,19.46,0,1,0,19.59,19.05A19.38,19.38,0,0,0,354.15,176.51ZM196.28,195.6a19.46,19.46,0,0,0,18.8,19.83,19.49,19.49,0,1,0,1.16-39A19.34,19.34,0,0,0,196.28,195.6Z"/><path class="cls-2" d="M80.74,92.27A133.71,133.71,0,0,1,45.22,81.21,80.07,80.07,0,0,1,13.65,55.83C10.29,51.28,6.27,47.75,0,48.27c4.56-11.91,12.31-13.22,23.51-3.79,10.6-7.6,25-6.45,35.54-15.2C69.27,20.79,77.16,10.34,85.36,0,83,12.43,77.79,23.69,71.55,34.54,65.18,45.61,55.29,53.29,45.27,61.06c4.42,7.29,10.59,12.37,16.82,17.32C68.16,83.19,74.51,87.66,80.74,92.27Z"/><path class="cls-3" d="M485.75,232.81l7.95,14.72V233.4c2.06-1.32,3.88-.55,5.93-.87V256.4h-8.39c-2.52-4.69-5.14-9.58-8.38-15.63v15.51a8,8,0,0,1-5.71,0V232.81Z"/><path class="cls-3" d="M457.74,232.92v8.46h7.11V233.2c2.35-1,4.33-.47,6.59-.55v23.76a13.55,13.55,0,0,1-6,.11c-1.32-2.81.08-5.91-1-9.22l-6.12-.29c-1.22,3.1-.13,6.14-.82,9.31-1.91.92-4,.19-6.36.48V232.92Z"/><path class="cls-3" d="M502.74,256.63c2.63-8.13,5.12-15.8,7.69-23.73h9.12c2.5,7.61,5.05,15.38,7.61,23.2-2.41,1.13-4.54.52-6.91.54l-1.57-4H511.5c-.51,1.33-1,2.65-1.54,4Zm14.58-10.1c-.68-2.72-1.29-5.12-2.18-8.68-1,3.59-1.64,6-2.28,8.39C514.32,247.06,515.45,246.81,517.32,246.53Z"/><path class="cls-3" d="M558.75,232.69h9q3.84,11.59,7.76,23.46c-2.4,1.08-4.53.38-6.22.54-2-.92-1.06-3.06-2.65-4.08h-6.8c-.5,1.28-1,2.48-1.46,3.77-2.06.67-4.18.42-7.2.11C553.71,248.49,556.19,240.73,558.75,232.69Zm6.78,13.53c-.86-2.4-.61-5.13-2.49-7.48-.62,2.66-1.19,5.13-1.77,7.61C562.91,246.85,564.16,247.1,565.53,246.22Z"/><path class="cls-1" d="M543.24,256.58h-8c-2.57-7.81-5.13-15.6-7.74-23.5,2.64-.78,4.91-.51,7.46-.24,1.32,4.72,2.64,9.47,4.22,15.16l4.3-15.21h7.46C548.35,240.76,545.87,248.44,543.24,256.58Z"/><path class="cls-1" d="M411,232.6h6.73c7.53,0,10.28,2,10.44,7.47.17,6.13-2.13,8.22-9.87,8.86-1.55,2.17-.06,4.83-1,7.28-1.92,1-4,.57-6.26.28Zm7,5.54a6.2,6.2,0,0,0,.07,5.07c2.78,0,3.86-1.36,3.32-4.3A4.2,4.2,0,0,0,418,238.14Z"/><path class="cls-4" d="M432.48,232.79h14.06v4.71c-2.37,1.9-6.68-1.42-7.82,3.19,2.35,1.73,4.86.24,7,1.23.8,1.54.54,3.12.15,4.91l-6.38.52c-.9,1.23-.52,2.36-.39,3.51,2.28,1.13,4.69.16,7.07.71,1.08,1.42.28,3.05.59,4.91H432.48Z"/><path class="cls-4" d="M45.29,30.71C38.47,32.62,31.64,34,25.38,37.45c3.74-4.49,8-8.43,11.51-13A99.09,99.09,0,0,0,46.15,9.63C48.33,13.74,48,20.93,45.29,30.71Z"/></g></g></svg>